<svg width="13" height="15" viewBox="0 0 13 15" fill="none" xmlns="http://www.w3.org/2000/svg">
<path d="M12.9539 12.6519L11.8378 10.8631C11.3224 10.0375 11.05 9.09188 11.05 8.12938V6.5625C11.05 4.58437 9.67713 2.91126 7.79984 2.37188V1.25001C7.79984 0.560625 7.21677 0 6.49978 0C5.78279 0 5.19972 0.560625 5.19972 1.25001V2.37188C3.32247 2.91126 1.94961 4.58437 1.94961 6.5625V8.12938C1.94961 9.09188 1.67724 10.0369 1.16242 10.8625L0.0463396 12.6513C-0.0141128 12.7482 -0.0154229 12.8682 0.0424395 12.9663C0.100302 13.0644 0.207556 13.125 0.324561 13.125H12.675C12.792 13.125 12.8999 13.0644 12.9578 12.9669C13.0157 12.8694 13.0137 12.7481 12.9539 12.6519Z" fill="white"/>
<path d="M4.45312 13.7499C4.81974 14.4861 5.59587 14.9999 6.50003 14.9999C7.4042 14.9999 8.18036 14.4861 8.54697 13.7499H4.45312Z" fill="white"/>
</svg>
